<svg height="61" viewBox="0 0 98 61" width="98" xmlns="http://www.w3.org/2000/svg"><path d="m92.5560497 24c1.2604559 0 2.4384521.6242789 3.1452498 1.6725962l10.0483075 15.076923c1.660974 2.5088943-.12958 5.8658654-3.13347 5.8658654l-2.616137-.0003846v38.385h-84v-38.385l-3.2246627.0003846c-3.01567019 0-4.80622437-3.3569711-3.1334698-5.8658654l10.0483074-15.076923c.6950177-1.0483173 1.8730139-1.6725962 3.1334698-1.6725962zm1.4439503 22.615h-33v36.385h33zm-39 29.385h-32.853l.0008164 3.1452991c0 .097821-.0516382.1862615-.1450108.2653214l-.0028056 3.5893795h33zm26.9882353-5.5294118v1.7647059h-3.1764706v5.6263059l4.5882353 1.0795765v1.0588235h-12v-1.0588235l4.5880941-1.08.0001412-5.6258824h-3.1764706v-1.7647059zm-26.9882353-3.4705882h-32.853v7h32.853zm25.175-14c2.224069 0 4.2029631 1.2783972 5.1068107 3.2772261l.0926893.2168915.9965 2.4731802.562 1.3946691c1.1485714.4334559 1.9842177 1.4967137 2.0611986 2.7691766l.0058014.1923859v2.382353c0 .7277907-.2545455 1.3907723-.6704733 1.9248067l-.1295267.1562778v2.6836213c0 .8282813-.6391003 1.508698-1.4543905 1.5817434l-.1456095.0064919h-1.6c-.8344167 0-1.5198735-.634401-1.59346-1.4436964l-.00654-.1445389v-1.5882353h-12.8v1.5882353c0 .8282813-.6391003 1.508698-1.4543905 1.5817434l-.1456095.0064919h-1.6c-.8344167 0-1.5198735-.634401-1.59346-1.4436964l-.00654-.1445389v-2.6836213c-.4472727-.5080548-.7424793-1.1510604-.7924568-1.8648788l-.0075432-.2162057v-2.382353c0-1.2923319.7809524-2.3964886 1.8971169-2.8918732l.1698831-.0696893.562-1.3946691.9965-2.4731802c.826-2.0495765 2.757151-3.3986488 4.9622311-3.4892512l.2372689-.0048664zm-11.175 9.5294118c-.96 0-1.6.6333088-1.6 1.583272 0 .9499633.64 1.5832721 1.6 1.5832721s2.4.1583272 2.4-.791636c0-.9499633-1.44-2.3749081-2.4-2.3749081zm16 0c-.96 0-2.4 1.4249448-2.4 2.3749081 0 .9499632 1.44.791636 2.4.791636s1.6-.6333088 1.6-1.5832721c0-.9499632-.64-1.583272-1.6-1.583272zm-30-15.9144118-32.8521836.0003846-.0008164 18.3846154h32.853zm25.175 9.5614706h-6.35c-.9201563 0-1.7533008.5212851-2.1541882 1.3315672l-.0743118.1658409-.9965 2.4731801h12.8l-.9965-2.4731801c-.3645-.9043015-1.247-1.4974081-2.2285-1.4974081zm-48.175-2.1764706v3h-8v-3zm11 0v3h-9v-3zm10 0v3h-8v-3zm19.4842285-23.0673828c-.9954427 0-1.8154297.3258463-2.4599609.977539-.741211.7483724-1.1118164 1.8136394-1.1118164 3.1958008 0 1.2783203.3258463 2.2845052.977539 3.0185547.6516927.7304688 1.546875 1.0957031 2.6855469 1.0957031.9202474 0 1.6748861-.270345 2.263916-.8110351.58903-.5406901.9551595-1.242513 1.0983887-2.1054688h-1.6381836c-.1110026.4082032-.250651.7143555-.4189453.9184571-.304362.3795573-.746582.5693359-1.3266602.5693359-.5657552 0-1.0321451-.22111-1.3991699-.6633301-.3670247-.44222-.5505371-1.1073405-.5505371-1.9953613s.1736654-1.5746257.5209961-2.0598145.8217773-.7277832 1.4233398-.7277832c.5908204 0 1.0366211.171875 1.3374024.515625.1682943.1933594.3061523.4798178.4135742.859375h1.6542969c-.0250651-.4941406-.2076823-.9864908-.5478516-1.4770507-.6158854-.873698-1.5898437-1.3105469-2.921875-1.3105469zm-38.7524414-.0805664c-.9990234 0-1.7563476.2345377-2.2719726.7036133-.515625.4690755-.7734375 1.0581054-.7734375 1.7670898 0 .7770182.2667643 1.3481445.8002929 1.7133789.3151042.2184245.8844401.4207357 1.7080078.6069336l.8378907.1879883c.4905599.1074219.8504231.230957 1.0795898.3706055.2291667.1432291.34375.3455403.34375.6069336 0 .4475911-.230957.7537434-.6928711.918457-.2434896.0859375-.5603841.1289062-.9506836.1289062-.6516927 0-1.1118164-.1629231-1.3803711-.4887695-.1468099-.1790365-.2452799-.4493815-.2954101-.8110352h-1.5791016c0 .8235678.2954102 1.4707845.8862305 1.9416504s1.4018554.7062989 2.4331054.7062989c1.0097657 0 1.7912598-.2390137 2.3444825-.7170411.5532226-.4780273.8298339-1.0786946.8298339-1.8020019 0-.7054037-.2363281-1.2443034-.7089843-1.6166992-.304362-.2399089-.7555339-.4314779-1.3535157-.5747071l-1.3642578-.3276367c-.5263672-.1253255-.8701172-.2345377-1.03125-.3276367-.250651-.1396484-.3759765-.3509115-.3759765-.6337891 0-.3079427.1271159-.5478515.3813476-.7197265.2542318-.171875.5944011-.2578125 1.0205078-.2578125.3831381 0 .7036133.0662435.9614258.1987304.3867188.2005209.5944011.5388998.6230469 1.0151368h1.5898437c-.0286458-.8414714-.3374837-1.4833171-.9265136-1.9255371-.58903-.4422201-1.3006999-.6633301-2.1350098-.6633301zm11.4984375.230957h-5.8061523v7.9169922h5.9995117v-1.4233398h-4.3828125v-2.0356446h3.8457031v-1.375h-3.8457031v-1.6811523h4.1894531zm6.5033203 0h-3.8833008v7.9169922h1.6166993v-3.1044922h1.7080078c.4869791 0 .8190918.0841471.9963379.2524414s.2694498.5048828.2766113 1.0097656l.0107422.7358399c.0035807.2327474.0268554.4601237.0698242.6821289.0214844.1074219.0572917.2488607.1074219.4243164h1.8208008v-.1987305c-.1575521-.0966797-.2578125-.2470703-.3007813-.4511718-.0286458-.1289063-.0429687-.3741862-.0429687-.7358399v-.5317383c0-.555013-.0760905-.967692-.2282715-1.2380371-.152181-.270345-.4108887-.4789225-.7761231-.6257324.436849-.1503906.7501628-.4073079.9399414-.770752.1897787-.363444.284668-.7331542.284668-1.1091308 0-.3115234-.0501302-.58903-.1503906-.8325195-.1002604-.2434896-.2363282-.4654948-.4082032-.6660157-.2076822-.2434896-.4610188-.4278971-.7600097-.5532226s-.7259929-.1933594-1.2810059-.2041016zm6.1112305 0h-1.7670899l2.6748047 7.9169922h1.5629883l2.7016602-7.9169922h-1.71875l-1.7348633 6.0102539zm8.7699219 0h-1.6435547v7.9169922h1.6435547zm17.5398437 0h-5.8061523v7.9169922h5.9995117v-1.4233398h-4.3828125v-2.0356446h3.8457031v-1.375h-3.8457031v-1.6811523h4.1894531zm-32.7647461 1.375c.3580729 0 .6266276.0465495.8056641.1396484.3186849.1647136.4780273.4869792.4780273.9667969 0 .4440104-.1647135.741211-.4941406.8916016-.1861979.0859375-.4654948.1289062-.8378906.1289062h-1.8745117v-2.1269531z" fill="#ced8e0" transform="translate(-9 -24)"/></svg>